<svg width="19" height="17" viewBox="0 0 19 17" fill="none" xmlns="http://www.w3.org/2000/svg">
<path d="M17.5985 9.50784C18.4628 8.64438 19.0005 7.44256 19 6.12402C19.0005 4.80553 18.4628 3.60366 17.5985 2.74046C16.7353 1.87589 15.5338 1.33817 14.2147 1.33899C12.8962 1.33817 11.6941 1.87593 10.8314 2.74046C9.96664 3.60366 9.42889 4.80553 9.42944 6.12402C9.42889 7.44252 9.96664 8.64434 10.8314 9.50784C11.5465 10.2239 12.4943 10.7145 13.5482 10.8619V12.8278H11.3778V14.1617H13.5482V16.2682H14.8818V14.1617H17.0522V12.8278H14.8818V10.8619C15.9357 10.7145 16.8835 10.2239 17.5985 9.50784ZM14.2147 9.17538C13.7912 9.17508 13.3919 9.08999 13.0271 8.93587C12.4807 8.70498 12.013 8.31674 11.6838 7.82938C11.3552 7.34151 11.1639 6.759 11.1639 6.12402C11.1639 5.70023 11.249 5.30123 11.4031 4.93674C11.6337 4.39009 12.0217 3.92269 12.5093 3.59346C12.9975 3.26452 13.5799 3.07322 14.2147 3.07267C14.6382 3.07296 15.0375 3.15809 15.4023 3.31247C15.9487 3.54306 16.4164 3.9313 16.7456 4.41866C17.0742 4.90687 17.2655 5.4893 17.2661 6.12406C17.2655 6.54785 17.1804 6.94685 17.0263 7.31137C16.7957 7.858 16.4072 8.32569 15.9201 8.65466C15.4319 8.98382 14.85 9.17486 14.2147 9.17538Z" fill="#C8CFDB"/>
<path d="M5.45181 6.44353V3.15749L6.77625 4.48167L7.71972 3.53872L4.78529 0.604034L1.85031 3.53872L2.79326 4.48167L4.11821 3.15723V6.44353C3.06427 6.59115 2.1165 7.08177 1.40147 7.7981C0.536676 8.66134 -0.000519155 9.8629 3.76496e-07 11.1814C-0.000519155 12.5005 0.536676 13.702 1.40147 14.5652C2.26467 15.43 3.46624 15.9675 4.78529 15.967C6.10379 15.9675 7.30539 15.43 8.16856 14.5652C9.03335 13.702 9.57055 12.5004 9.57055 11.1814C9.57055 9.86294 9.03335 8.66133 8.16856 7.79813C7.45357 7.08181 6.50576 6.59115 5.45181 6.44353ZM7.59689 12.369C7.36573 12.9156 6.97779 13.3831 6.49065 13.7123C6.00252 14.0415 5.42005 14.2328 4.78529 14.2328C4.36124 14.2328 3.9625 14.1477 3.59772 13.9936C3.05136 13.7624 2.58363 13.3744 2.25443 12.8871C1.9252 12.3989 1.73394 11.8167 1.73394 11.1815C1.73394 10.758 1.81907 10.359 1.97314 9.99445C2.2043 9.44809 2.59228 8.9804 3.07989 8.65117C3.56751 8.32223 4.14998 8.13123 4.78526 8.13067C5.20878 8.13067 5.60749 8.2158 5.97283 8.37017C6.51867 8.60107 6.98636 8.98901 7.3156 9.47637C7.64479 9.96458 7.83609 10.5468 7.83609 11.1815C7.83613 11.6054 7.75096 12.0047 7.59689 12.369Z" fill="#C8CFDB"/>
</svg>
