<svg width="16" height="18" viewBox="0 0 16 18" fill="none" xmlns="http://www.w3.org/2000/svg">
<path d="M13.4444 8H2.55556C1.69645 8 1 8.69645 1 9.55556V15C1 15.8591 1.69645 16.5556 2.55556 16.5556H13.4444C14.3036 16.5556 15 15.8591 15 15V9.55556C15 8.69645 14.3036 8 13.4444 8Z" stroke="#ADB8C9" stroke-width="1.5" stroke-linecap="round" stroke-linejoin="round"/>
<path opacity="0.4" d="M4.11111 8V4.88889C4.11111 3.85749 4.52084 2.86834 5.25014 2.13903C5.97945 1.40972 6.96861 1 8 1C9.0314 1 10.0206 1.40972 10.7499 2.13903C11.4792 2.86834 11.8889 3.85749 11.8889 4.88889V8" stroke="#ADB8C9" stroke-width="1.5" stroke-linecap="round" stroke-linejoin="round"/>
</svg>
